<svg xmlns="http://www.w3.org/2000/svg" viewBox="0 0 35 45" width="35" height="45">
	<defs>
		<clipPath clipPathUnits="userSpaceOnUse" id="cp1">
			<path d="M0 0L35 0L35 45L0 45Z" />
		</clipPath>
	</defs>
	<style>
		tspan { white-space:pre }
		.shp0 { fill: #ffffff } 
	</style>
	<g id="Page 1" clip-path="url(#cp1)">
		<path id="Path 1" fill-rule="evenodd" class="shp0" d="M35.04 7.53L35.04 21.93C35.04 28.1 32.14 34.06 27.21 37.8L18.03 44.83C17.86 44.94 17.69 45 17.52 45C17.35 45 17.18 44.94 17.06 44.83L7.82 37.8C2.89 34.06 0 28.1 0 21.93L0 7.53C0 7.07 0.34 6.67 0.79 6.67C11.45 6.67 16.89 0.67 16.89 0.61C17.06 0.44 17.29 0.32 17.52 0.32C17.74 0.32 17.97 0.44 18.14 0.61C18.2 0.67 23.64 6.67 34.24 6.67C34.7 6.67 35.04 7.07 35.04 7.53ZM33.45 8.26C24.49 8.04 19.22 3.84 17.52 2.25C15.82 3.84 10.54 8.04 1.59 8.26L1.59 21.93C1.59 27.65 4.25 33.09 8.79 36.55L17.52 43.19L26.25 36.55C30.78 33.09 33.45 27.65 33.45 21.93L33.45 8.26Z" />
		<path id="Path 2" fill-rule="evenodd" class="shp0" d="M17.8 4.63C17.86 4.63 17.86 4.63 17.91 4.69C17.91 4.69 17.97 4.69 18.03 4.75C20.58 6.68 24.94 9.12 31.18 9.74C31.58 9.79 31.86 10.13 31.86 10.53L31.86 21.93C31.86 26.35 30.1 30.54 27.04 33.66C27.04 33.66 27.04 33.72 26.99 33.72L26.99 33.78C26.42 34.28 25.85 34.8 25.28 35.25L18.03 40.8C17.97 40.8 17.91 40.86 17.91 40.86C17.86 40.86 17.86 40.92 17.8 40.92C17.69 40.92 17.63 40.98 17.52 40.98C17.4 40.98 17.35 40.92 17.23 40.92C17.18 40.92 17.18 40.86 17.12 40.86L17.07 40.8L9.75 35.25C5.61 32.13 3.18 27.14 3.18 21.93L3.18 10.53C3.18 10.13 3.46 9.79 3.91 9.74C10.09 9.12 14.46 6.68 17.07 4.75C17.07 4.69 17.12 4.69 17.12 4.69C17.18 4.63 17.18 4.63 17.23 4.63C17.35 4.58 17.4 4.58 17.52 4.58C17.63 4.58 17.69 4.58 17.8 4.63ZM25.28 33.15L18.31 26.18L18.31 28.67L23.92 34.28L24.32 34C24.66 33.72 25 33.44 25.28 33.15ZM18.31 38.54L19.9 37.35L18.31 35.76L18.31 38.54ZM22.62 35.25L18.31 30.94L18.31 33.49L21.2 36.38L22.62 35.25ZM30.22 22.66L26.65 22.66L29.76 25.78C30.05 24.76 30.16 23.74 30.22 22.66ZM21.83 22.66L28.4 29.18C28.69 28.62 28.97 28.05 29.2 27.48L24.38 22.66L21.83 22.66ZM18.31 22.66L18.31 23.91L26.42 32.02C26.82 31.56 27.21 31.11 27.55 30.6L19.56 22.66L18.31 22.66ZM10.72 34L16.72 38.54L16.72 22.66L4.82 22.66C5.05 27.09 7.2 31.28 10.72 34ZM4.76 18.36L15.36 7.75C14.06 8.49 12.47 9.23 10.72 9.85L4.76 15.8L4.76 18.36ZM6.8 21.08L16.72 11.15L16.72 8.6L4.76 20.57L4.76 21.08L6.8 21.08ZM4.76 11.21L4.76 13.54L7.6 10.76C6.69 10.93 5.73 11.1 4.76 11.21ZM11.62 21.08L16.72 15.92L16.72 13.42L9.07 21.08L11.62 21.08ZM13.89 21.08L16.72 21.08L16.72 18.19L13.89 21.08ZM30.27 11.21C24.94 10.59 20.98 8.66 18.31 6.9L18.31 21.08L30.27 21.08L30.27 11.21Z" />
	</g>
</svg>