<svg xmlns="http://www.w3.org/2000/svg" viewBox="0 0 36 36" width="36" height="36">
	<defs>
		<clipPath clipPathUnits="userSpaceOnUse" id="cp1">
			<path d="M0 0L36 0L36 36L0 36Z" />
		</clipPath>
	</defs>
	<style>
		tspan { white-space:pre }
		.shp0 { fill: #ffffff } 
	</style>
	<g id="Page 1" clip-path="url(#cp1)">
		<path id="Path 1" class="shp0" d="M0 4.54L3.18 8.9L4.99 8.9L16.27 20.13L17.23 19.22L5.95 7.94L5.95 6.12L1.64 2.89L0 4.54ZM32.03 29.82C32.43 30.33 32.77 30.78 32.94 31.29C33.11 31.92 33.17 32.49 33.05 33C32.88 33.39 32.71 33.85 32.49 34.36C31.92 35.21 31.01 35.83 30.05 36L32.03 29.82ZM16.5 24.61C16.04 24.49 15.53 24.32 15.25 24.1C14.74 23.59 14.68 22.85 15.42 22.11L18.26 19.28L16.5 24.61ZM19.22 26.08C18.77 25.45 18.37 25.17 17.92 24.95L20.3 17.8C20.64 17.75 20.92 17.92 21.15 18.14C21.32 18.37 21.49 18.65 21.54 18.99L19.22 26.08ZM21.2 29.42L20.18 28.4C20.18 28.23 20.13 28.06 20.13 27.89L22.28 21.26C22.34 21.32 22.34 21.43 22.39 21.49C22.68 21.77 23.02 22.05 23.53 22.39L21.2 29.42ZM23.64 31.8L22.79 31.01L22.34 30.56L24.83 22.96C25.06 23.02 25.29 23.07 25.51 23.07L26.25 23.81L23.64 31.8ZM25.97 34.13L25.4 33.56L24.78 32.94L27.33 24.95L28.06 25.74L28.57 26.19L25.97 34.13ZM28.4 35.89C27.95 35.72 27.55 35.43 27.16 35.15L29.71 27.33L30.67 28.35L30.95 28.63L28.57 35.89L28.4 35.89Z" />
		<path id="Path 2" fill-rule="evenodd" class="shp0" d="M16.27 26.42L8.16 34.53C7.26 35.43 6.01 35.89 4.82 35.89C3.63 35.89 2.38 35.43 1.47 34.53L1.47 34.47C0.57 33.56 0.11 32.37 0.11 31.18C0.11 29.99 0.57 28.8 1.47 27.84L11.68 17.63C11.96 17.4 12.36 17.4 12.59 17.63L12.59 17.69L15.19 20.3C15.42 20.52 15.42 20.92 15.19 21.15L14.85 21.49L14.85 21.54L14.8 21.54L14.74 21.6C14.51 21.88 14.34 22.11 14.23 22.39C14.12 22.62 14.06 22.9 14 23.13L14 23.24C14 23.47 14.06 23.7 14.12 23.92C14.23 24.21 14.34 24.43 14.57 24.6L14.57 24.66L14.63 24.66L14.63 24.72C14.85 24.89 15.02 25 15.25 25.11C15.48 25.23 15.76 25.28 15.99 25.34C16.33 25.45 16.55 25.8 16.44 26.14C16.38 26.25 16.33 26.31 16.27 26.42ZM7.26 33.62L14.74 26.19C14.4 26.08 14.06 25.85 13.83 25.63L13.78 25.57L13.72 25.51L13.66 25.45C13.38 25.17 13.15 24.77 12.98 24.38C12.81 23.98 12.76 23.58 12.76 23.13C12.81 22.68 12.93 22.28 13.1 21.88C13.27 21.49 13.49 21.15 13.83 20.81L13.83 20.75L13.89 20.75L13.89 20.69L12.13 18.93L2.38 28.74C1.7 29.42 1.36 30.27 1.36 31.18C1.36 32.09 1.7 32.94 2.32 33.62L2.38 33.62L2.38 33.67C3.06 34.3 3.97 34.64 4.82 34.64C5.73 34.64 6.63 34.3 7.26 33.62ZM14.97 21.32C15.08 21.26 15.14 21.2 15.19 21.15M6.58 29.42L6.63 29.42C7.09 29.93 7.31 30.56 7.31 31.18C7.31 31.86 7.09 32.48 6.58 32.99C6.07 33.45 5.44 33.73 4.82 33.73C4.14 33.73 3.52 33.45 3.01 32.99C2.49 32.48 2.27 31.86 2.27 31.18C2.27 30.56 2.49 29.88 3.01 29.42L3.06 29.37C3.52 28.91 4.14 28.63 4.82 28.63C5.44 28.63 6.07 28.91 6.58 29.42ZM5.73 30.27C5.44 30.05 5.1 29.88 4.82 29.88C4.48 29.88 4.14 29.99 3.91 30.22L3.85 30.27C3.63 30.5 3.52 30.84 3.52 31.18C3.52 31.52 3.63 31.86 3.85 32.09C4.14 32.37 4.48 32.48 4.82 32.48C5.1 32.48 5.44 32.37 5.73 32.09C5.95 31.86 6.07 31.52 6.07 31.18C6.07 30.9 5.95 30.56 5.73 30.27ZM24.89 17.74L23.47 19.22C23.24 19.45 22.85 19.45 22.62 19.22C22.51 19.1 22.45 18.99 22.45 18.88C22.39 18.65 22.28 18.42 22.17 18.2C22.11 17.97 21.94 17.74 21.83 17.57L21.77 17.57L21.71 17.52C21.54 17.29 21.32 17.12 21.03 17.07C20.81 16.95 20.58 16.89 20.3 16.95L20.24 16.95C19.96 16.95 19.73 17.01 19.45 17.12C19.22 17.23 18.99 17.4 18.77 17.63L18.71 17.63L18.65 17.69L18.65 17.74L18.6 17.74L18.26 18.14C17.97 18.37 17.57 18.37 17.35 18.14L17.35 18.08L14.74 15.48C14.46 15.25 14.46 14.85 14.74 14.63L18.2 11.17C17.97 10.43 17.86 9.64 17.86 8.84C17.86 7.99 17.97 7.09 18.26 6.23C18.88 4.37 19.9 2.95 21.2 1.93C22.56 0.85 24.21 0.28 25.97 0.23C27.33 0.23 27.72 0.57 27.78 1.19C27.78 1.53 27.61 1.81 27.44 2.15L27.38 2.15L25.11 5.73L25.06 5.78C24.83 6.23 24.72 6.75 24.83 7.2L24.83 7.26C24.94 7.71 25.23 8.16 25.68 8.45L27.72 9.75C28.18 10.03 28.69 10.09 29.14 9.98C29.65 9.86 30.1 9.58 30.39 9.13L32.71 5.5C32.77 5.44 32.77 5.39 32.83 5.33C33 5.1 33.11 4.88 33.39 4.76C33.9 4.48 34.36 4.65 34.87 5.73C35.55 7.14 35.83 8.73 35.72 10.2C35.6 11.73 35.09 13.15 34.3 14.4C33.51 15.65 32.43 16.67 31.07 17.35C29.82 17.91 28.35 18.2 26.76 18.08C26.42 18.08 26.02 18.03 25.68 17.91C25.4 17.91 25.17 17.86 24.89 17.74ZM23.3 17.63L24.32 16.61C24.43 16.5 24.72 16.38 24.94 16.5C25.23 16.55 25.57 16.67 25.91 16.72C26.19 16.78 26.53 16.84 26.87 16.84C28.23 16.95 29.48 16.72 30.5 16.21C31.64 15.65 32.6 14.8 33.28 13.72C33.96 12.64 34.36 11.4 34.47 10.15C34.58 8.84 34.36 7.48 33.73 6.23L33.73 6.18L31.46 9.75C31.41 9.81 31.41 9.81 31.41 9.86C30.9 10.54 30.22 11 29.42 11.17C28.63 11.34 27.84 11.23 27.1 10.77C27.04 10.77 27.04 10.77 26.99 10.72L25.06 9.47C25 9.47 25 9.47 24.94 9.41C24.27 8.96 23.81 8.28 23.64 7.54L23.64 7.48C23.47 6.69 23.58 5.84 24.04 5.16C24.04 5.1 24.04 5.1 24.09 5.05L26.36 1.53L26.36 1.47C26.48 1.36 26.53 1.25 26.53 1.25C26.53 1.08 26.42 1.47 25.97 1.47C24.55 1.53 23.13 1.98 21.94 2.89C20.86 3.74 19.96 4.99 19.45 6.63C19.22 7.31 19.11 8.11 19.11 8.84C19.11 9.58 19.22 10.37 19.45 11.11C19.56 11.34 19.5 11.57 19.33 11.79L16.04 15.08L17.8 16.84L17.8 16.78L17.86 16.78L17.86 16.72C18.2 16.44 18.6 16.16 18.94 15.99C19.33 15.82 19.73 15.7 20.18 15.7C20.64 15.65 21.09 15.76 21.49 15.93C21.88 16.04 22.28 16.33 22.62 16.61L22.62 16.67L22.68 16.72L22.73 16.78C22.96 17.07 23.13 17.35 23.3 17.63ZM33.96 5.84L33.9 5.9L33.96 5.84Z" />
	</g>
</svg>