<svg xmlns="http://www.w3.org/2000/svg" viewBox="0 0 112 112" width="112" height="112">
	<defs>
		<clipPath clipPathUnits="userSpaceOnUse" id="cp1">
			<path d="M0 0L112 0L112 112L0 112Z" />
		</clipPath>
	</defs>
	<style>
		tspan { white-space:pre }
		.shp0 { fill: #d9dfde } 
		.shp1 { fill: #e8321a } 
	</style>
	<g id="Page 1" clip-path="url(#cp1)">
		<path id="Path 1" fill-rule="evenodd" class="shp0" d="M55.89 0.12C71.34 0.12 85.36 6.36 95.45 16.55C105.53 26.64 111.88 40.55 111.88 56C111.88 71.46 105.53 85.48 95.45 95.56C85.36 105.64 71.34 112 55.89 112C40.44 112 26.52 105.64 16.44 95.56C6.25 85.48 0 71.46 0 56C0 40.55 6.25 26.64 16.44 16.55C26.52 6.36 40.44 0.12 55.89 0.12ZM90.62 21.38C81.75 12.5 69.47 6.91 55.89 6.91C42.41 6.91 30.13 12.5 21.26 21.38C12.38 30.25 6.79 42.53 6.79 56C6.79 69.59 12.38 81.87 21.26 90.74C30.13 99.62 42.41 105.1 55.89 105.1C69.47 105.1 81.75 99.62 90.62 90.74C99.5 81.87 104.98 69.59 104.98 56C104.98 42.53 99.5 30.25 90.62 21.38Z" />
		<path id="Path 2" class="shp1" d="M55.89 98.52C79.34 98.52 98.41 79.45 98.41 56C98.41 32.66 79.34 13.6 55.89 13.6C32.55 13.6 13.48 32.66 13.48 56C13.48 79.45 32.55 98.52 55.89 98.52Z" />
	</g>
</svg>