<svg xmlns="http://www.w3.org/2000/svg" viewBox="0 0 426 426" width="426" height="426">
	<defs>
		<clipPath clipPathUnits="userSpaceOnUse" id="cp1">
			<path d="M0 0L426 0L426 426L0 426Z" />
		</clipPath>
	</defs>
	<style>
		tspan { white-space:pre }
		.shp0 { fill: #d11633 } 
	</style>
	<g id="Page 1" clip-path="url(#cp1)">
		<path id="Path 1" class="shp0" d="M263.61 213.02L415.48 61.15C429.46 47.17 429.46 24.5 415.48 10.52C401.5 -3.46 378.83 -3.46 364.85 10.52L212.98 162.4L61.11 10.52C47.13 -3.46 24.46 -3.46 10.48 10.52C-3.49 24.5 -3.49 47.17 10.48 61.15L162.36 213.02L10.48 364.89C-3.49 378.87 -3.49 401.54 10.48 415.52C24.46 429.49 47.13 429.49 61.11 415.52L212.98 263.64L364.85 415.52C378.83 429.49 401.5 429.49 415.48 415.52C429.46 401.54 429.46 378.87 415.48 364.89L263.61 213.02Z" />
	</g>
</svg>