<svg xmlns="http://www.w3.org/2000/svg" viewBox="0 0 556 140" width="556" height="140">
	<defs>
		<clipPath clipPathUnits="userSpaceOnUse" id="cp1">
			<path d="M0 0L556 0L556 140L0 140Z" />
		</clipPath>
	</defs>
	<style>
		tspan { white-space:pre }
		.shp0 { fill: #2c2e2d } 
		.shp1 { fill: #e8321a } 
		.shp2 { fill: #2c2e2d;stroke: #2c2e2d;stroke-width: 2 } 
		.shp3 { fill: #e8321a;stroke: #e4e8e7;stroke-width: 6 } 
		.shp4 { fill: #e4e8e7 } 
	</style>
	<g id="Page 1" clip-path="url(#cp1)">
		<path id="Path 1" fill-rule="evenodd" class="shp0" d="M395.49 62.7C398.16 48.52 408.7 37.7 423.33 34.97C425.71 34.52 428.26 34.29 430.87 34.29L460.97 34.29C461.43 34.29 461.77 34.35 462.16 34.41C462.56 34.46 462.9 34.58 463.3 34.75C463.64 34.92 463.98 35.09 464.32 35.26C464.6 35.48 464.88 35.71 465.17 35.99C465.45 36.28 465.68 36.56 465.9 36.9C466.07 37.19 466.3 37.53 466.41 37.87C466.58 38.26 466.7 38.6 466.75 39C466.87 39.4 466.87 39.79 466.87 40.19L466.87 95.01L469.08 95.01C470.55 95.01 471.86 95.58 472.71 96.66C473.67 97.73 474.24 99.38 474.29 101.59L474.29 114.51L462.9 114.51L462.9 106.41L396.51 106.41L396.51 114.51L385.17 114.51L385.17 101.64C385.23 99.43 385.68 97.79 386.7 96.71C387.72 95.69 389.37 95.07 391.92 95.01L394.81 95.01L394.81 70.29C394.81 67.69 395.04 65.13 395.49 62.7ZM406.49 95.01L455.19 95.01L455.19 45.97L430.87 45.97C419.64 45.97 408.81 53.23 406.89 65.02C406.66 66.61 406.49 68.42 406.49 70.29L406.49 95.01ZM381.09 78.34C380.52 79.2 379.84 80.05 379.16 80.78C375.76 84.35 368.68 88.1 363.74 88.1C362.89 88.21 362.1 88.27 361.25 88.27L349.29 88.27L349.29 76.59L361.36 76.59C368.73 75.96 373.49 71.48 373.49 64.28L373.49 58.16C372.76 51.42 369.07 45.97 361.25 45.97L331.14 45.97C330.12 45.97 329.27 46.09 328.48 46.37C327.69 46.65 327.01 47.05 326.44 47.62C325.93 48.18 325.48 48.81 325.25 49.66C324.96 50.4 324.79 51.25 324.79 52.21L324.79 106.35L313.17 106.35L313.17 52.21C313.17 41.66 321.05 34.29 331.03 34.29L361.25 34.29C375.42 34.29 385.17 44.9 385.17 58.22C385.17 61.56 385.34 65.25 384.89 68.48C384.49 71.37 382.96 76.08 381.09 78.34ZM174.22 52.21L174.22 106.35L162.6 106.35L162.6 52.21C162.6 41.95 170.02 34.3 180.45 34.3L223.15 34.3L219.97 45.97L180.57 45.97C176.54 45.97 174.22 48.24 174.22 52.21Z" />
		<path id="Path 2" fill-rule="evenodd" class="shp0" d="M285.68 88.27L236.98 88.27L236.98 106.35L225.3 106.35L225.3 70.29C225.3 65.31 226.09 60.43 228.02 55.78C233.69 41.89 246.56 34.29 261.36 34.29L291.46 34.29C294.75 34.29 297.36 36.9 297.36 40.19L297.36 106.35L285.68 106.35L285.68 88.27ZM285.68 76.59L285.68 45.97L261.36 45.97C259.88 45.97 257.84 46.2 256.42 46.48C249.9 47.73 243.95 50.9 240.44 56.74C237.94 60.88 236.98 65.53 236.98 70.29L236.98 76.59L285.68 76.59Z" />
		<path id="Path 3" class="shp1" d="M336.87 89.23C340.61 89.23 343.67 86.23 343.67 82.48C343.67 78.74 340.61 75.74 336.87 75.74C333.19 75.74 330.13 78.74 330.13 82.48C330.13 86.23 333.19 89.23 336.87 89.23Z" />
		<path id="Path 4" fill-rule="evenodd" class="shp2" d="M69.94 1.12C88.99 1.12 106.17 8.83 118.64 21.3C131.11 33.78 138.88 51.01 138.88 70.06C138.88 89.11 131.11 106.29 118.64 118.76C106.17 131.23 88.99 139 69.94 139C50.89 139 33.66 131.23 21.18 118.76C8.71 106.29 1 89.11 1 70.06C1 51.01 8.71 33.78 21.18 21.3C33.66 8.83 50.89 1.12 69.94 1.12ZM112.74 27.26C101.74 16.32 86.66 9.57 69.94 9.57C53.21 9.57 38.08 16.32 27.14 27.26C16.19 38.2 9.45 53.34 9.45 70.06C9.45 86.79 16.19 101.87 27.14 112.86C38.08 123.81 53.21 130.55 69.94 130.55C86.66 130.55 101.74 123.81 112.69 112.86C123.68 101.87 130.43 86.79 130.43 70.06C130.43 53.34 123.68 38.2 112.74 27.26Z" />
		<path id="Path 5" class="shp3" d="M69.97 128.06C101.87 128.06 127.93 102 127.93 70.09C127.93 38.13 101.87 12.07 69.97 12.07C38.01 12.07 11.95 38.13 11.95 70.09C11.95 102 38.01 128.06 69.97 128.06Z" />
		<path id="Path 6" class="shp4" d="M79.49 88.72C80.45 87.7 82.15 87.64 83.17 88.66C84.25 89.63 84.25 91.33 83.23 92.35C81.41 94.28 79.66 95.86 77.67 97.17C75.63 98.53 73.42 99.6 70.81 100.51C70.47 100.63 70.13 100.63 69.85 100.63C69.51 100.63 69.17 100.63 68.83 100.51C66.22 99.6 64.01 98.53 62.02 97.17C59.98 95.86 58.23 94.28 56.41 92.35C55.39 91.33 55.45 89.63 56.47 88.66C57.49 87.64 59.19 87.7 60.21 88.72C61.74 90.36 63.27 91.73 64.92 92.8C66.39 93.76 67.98 94.56 69.85 95.24C71.72 94.56 73.31 93.76 74.72 92.8C76.37 91.73 77.9 90.36 79.49 88.72ZM90.88 93.65C91.79 92.52 93.43 92.35 94.57 93.26C95.7 94.16 95.87 95.81 95.02 96.94C91.85 100.85 88.22 104.2 84.08 106.92C80 109.64 75.52 111.79 70.58 113.44C69.9 113.61 69.28 113.61 68.71 113.33C63.78 111.74 59.25 109.64 55.11 106.98C51.25 104.48 47.79 101.48 44.79 97.9C44.56 97.56 44.45 97.56 44.22 97.22C43.32 96.09 43.49 94.45 44.62 93.54C45.75 92.63 47.4 92.86 48.3 93.99C48.53 94.28 48.59 94.22 48.82 94.5C51.48 97.68 54.54 100.34 57.94 102.55C61.51 104.88 65.48 106.69 69.79 108.17C73.87 106.69 77.73 104.88 81.19 102.55C84.82 100.11 88.1 97.17 90.88 93.65ZM83.96 38.32C82.6 37.81 81.92 36.28 82.43 34.92C82.94 33.56 84.42 32.88 85.78 33.39C89.97 34.92 94.74 37.3 99.1 40.08C103.18 42.63 106.92 45.52 109.59 48.41C110.04 48.92 110.27 49.6 110.27 50.28C110.38 54.31 110.16 58.16 109.76 61.79C109.42 65.48 108.85 68.93 108.29 72.11C108.06 73.58 106.7 74.55 105.28 74.26C103.86 74.04 102.9 72.68 103.13 71.26C103.69 68.08 104.2 64.74 104.54 61.28C104.88 58.11 105.05 54.76 105.05 51.25C102.73 48.98 99.67 46.65 96.32 44.5C92.24 41.95 87.82 39.74 83.96 38.32ZM54.48 33.39C55.85 32.88 57.38 33.56 57.89 34.92C58.4 36.28 57.72 37.81 56.36 38.32C52.5 39.74 48.13 41.95 44.05 44.5C40.71 46.6 37.65 48.98 35.32 51.3C35.27 54.76 35.32 58.16 35.55 61.39L35.55 61.45C35.78 64.91 36.17 68.14 36.91 71.09C37.19 72.51 36.34 73.92 34.93 74.26C33.51 74.6 32.09 73.7 31.75 72.28C31.01 69.05 30.56 65.53 30.28 61.79L30.28 61.73C30.05 58.11 29.99 54.25 30.11 50.28C30.11 49.6 30.33 48.92 30.79 48.41C33.51 45.52 37.19 42.63 41.28 40.08C45.58 37.3 50.35 34.92 54.48 33.39ZM83.74 49.15C82.38 48.58 81.75 47.05 82.38 45.69C82.94 44.39 84.48 43.76 85.84 44.33C88.27 45.41 90.71 46.54 92.98 47.79C95.3 49.09 97.51 50.62 99.5 52.49C100.07 53.06 100.35 53.8 100.29 54.59C100.18 57.2 100.07 59.3 99.84 61.22C99.67 63.21 99.39 65.08 98.99 67.29C98.76 68.71 97.4 69.67 95.98 69.44C94.51 69.16 93.55 67.8 93.83 66.38C94.17 64.28 94.45 62.47 94.62 60.66C94.79 59.13 94.91 57.48 95.02 55.5C93.6 54.36 92.07 53.29 90.37 52.38C88.27 51.19 86.01 50.17 83.74 49.15ZM55.56 44.33C56.92 43.76 58.45 44.38 59.02 45.69C59.64 47.05 59.02 48.58 57.66 49.15C55.39 50.17 53.12 51.19 51.02 52.38C49.32 53.34 47.79 54.36 46.38 55.5C46.49 57.48 46.6 59.12 46.77 60.66C46.94 62.47 47.23 64.28 47.57 66.38C47.79 67.8 46.89 69.16 45.41 69.44C43.99 69.67 42.63 68.71 42.41 67.29C42.01 65.08 41.73 63.21 41.56 61.22C41.33 59.24 41.22 57.14 41.1 54.48C41.1 53.74 41.33 53 41.9 52.49C43.88 50.62 46.09 49.09 48.42 47.79C50.68 46.54 53.12 45.41 55.56 44.33ZM71.95 32.03C72 30.61 73.19 29.42 74.61 29.47C76.08 29.47 77.22 30.66 77.22 32.08C77.11 38.49 77.11 44.9 77.11 51.24L77.11 60.83L77.11 60.88C77.11 61.9 77.5 62.81 78.18 63.6C78.92 64.62 80.05 65.47 81.36 66.27L104.94 78.8C106.24 79.48 106.76 81.06 106.07 82.31C105.39 83.62 103.81 84.13 102.5 83.45L78.86 70.92L78.75 70.8C76.93 69.73 75.29 68.42 74.04 66.89C72.68 65.13 71.83 63.15 71.89 60.83L71.89 51.24C71.89 44.84 71.89 38.43 71.95 32.03ZM63.1 32.08C63.04 30.67 64.23 29.48 65.65 29.48C67.13 29.42 68.32 30.61 68.32 32.03C68.43 38.43 68.43 44.84 68.43 51.25L68.43 60.83C68.43 63.15 67.64 65.14 66.27 66.89C65.03 68.42 63.38 69.73 61.57 70.8L61.46 70.92L37.76 83.45C36.51 84.13 34.92 83.62 34.24 82.31C33.56 81.07 34.07 79.48 35.32 78.8L58.96 66.27C60.21 65.48 61.34 64.63 62.14 63.6C62.82 62.81 63.21 61.9 63.16 60.88L63.16 60.83L63.16 51.25C63.16 44.9 63.16 38.49 63.1 32.08ZM101.37 86.73C102.67 87.41 103.18 89 102.5 90.31C101.82 91.61 100.24 92.12 98.93 91.44C93.21 88.49 87.93 85.6 82.49 82.71C80.17 81.46 77.79 80.21 74.04 78.17C73.99 78.17 73.93 78.12 73.87 78.12C72.57 77.44 71.44 77.04 70.36 76.98C69.28 76.93 68.09 77.21 66.79 77.95L42.18 90.99C40.93 91.72 39.29 91.21 38.61 89.91C37.93 88.66 38.44 87.02 39.69 86.34L64.29 73.24C66.5 72.05 68.54 71.6 70.58 71.71C72.57 71.77 74.38 72.39 76.37 73.41C76.42 73.47 76.48 73.47 76.54 73.53C78.58 74.6 81.81 76.3 84.99 78.06C90.43 80.95 95.76 83.84 101.37 86.73Z" />
		<path id="Path 7" fill-rule="evenodd" class="shp0" d="M543.91 88.27L495.21 88.27L495.21 106.35L483.54 106.35L483.54 70.29C483.54 65.31 484.39 60.43 486.26 55.78C491.93 41.89 504.79 34.29 519.59 34.29L549.7 34.29C552.98 34.29 555.59 36.9 555.59 40.19L555.59 106.35L543.91 106.35L543.91 88.27ZM543.91 76.59L543.91 45.97L519.59 45.97C518.12 45.97 516.13 46.2 514.66 46.48C508.14 47.73 502.24 50.9 498.67 56.74C496.18 60.88 495.21 65.53 495.21 70.29L495.21 76.59L543.91 76.59Z" />
	</g>
</svg>