<svg xmlns="http://www.w3.org/2000/svg" viewBox="0 0 393 243" width="393" height="243">
	<defs>
		<clipPath clipPathUnits="userSpaceOnUse" id="cp1">
			<path d="M0 0L393 0L393 243L0 243Z" />
		</clipPath>
	</defs>
	<style>
		tspan { white-space:pre }
		.shp0 { fill: #d4d0d0 } 
		.shp1 { fill: #28292d } 
		.shp2 { fill: #28292d;stroke: #28292d;stroke-width: 2 } 
		.shp3 { fill: #e8321a } 
	</style>
	<g id="Page 1" clip-path="url(#cp1)">
		<path id="Path 1" class="shp0" d="M194.47 131.9C228.98 131.9 257.17 103.71 257.17 69.2C257.17 34.63 228.98 6.44 194.47 6.44C159.9 6.44 131.71 34.63 131.71 69.2C131.71 103.71 159.9 131.9 194.47 131.9Z" />
		<path id="Path 2" fill-rule="evenodd" class="shp1" d="M232.89 191.18C235.56 177.01 246.1 166.18 260.73 163.46C263.11 163.01 265.66 162.78 268.27 162.78L298.37 162.78C298.83 162.78 299.17 162.84 299.56 162.89C299.96 162.95 300.3 163.06 300.7 163.23C301.04 163.4 301.38 163.57 301.72 163.74C302 163.97 302.29 164.2 302.57 164.48C302.85 164.76 303.08 165.05 303.31 165.39C303.48 165.67 303.7 166.01 303.82 166.35C303.99 166.75 304.1 167.09 304.16 167.49C304.27 167.88 304.27 168.28 304.27 168.67L304.27 223.5L306.48 223.5C307.96 223.5 309.26 224.06 310.11 225.14C311.07 226.22 311.64 227.86 311.7 230.07L311.7 243L300.3 243L300.3 234.89L233.91 234.89L233.91 243L222.58 243L222.58 230.13C222.63 227.92 223.09 226.27 224.11 225.2C225.13 224.18 226.77 223.55 229.32 223.5L232.21 223.5L232.21 198.78C232.21 196.17 232.44 193.62 232.89 191.18ZM243.89 223.5L292.59 223.5L292.59 174.46L268.27 174.46C257.05 174.46 246.22 181.71 244.29 193.51C244.06 195.09 243.89 196.91 243.89 198.78L243.89 223.5ZM218.49 206.83C217.93 207.68 217.25 208.53 216.57 209.27C213.17 212.84 206.08 216.58 201.15 216.58C200.3 216.69 199.5 216.75 198.65 216.75L186.69 216.75L186.69 205.07L198.76 205.07C206.13 204.45 210.9 199.97 210.9 192.77L210.9 186.65C210.16 179.9 206.47 174.46 198.65 174.46L168.55 174.46C167.53 174.46 166.68 174.57 165.88 174.85C165.09 175.14 164.41 175.54 163.84 176.1C163.33 176.67 162.88 177.29 162.65 178.14C162.37 178.88 162.2 179.73 162.2 180.69L162.2 234.84L150.58 234.84L150.58 180.69C150.58 170.15 158.46 162.78 168.43 162.78L198.65 162.78C212.82 162.78 222.58 173.38 222.58 186.7C222.58 190.05 222.75 193.73 222.29 196.97C221.9 199.86 220.36 204.56 218.49 206.83ZM11.62 180.69L11.62 234.84L0 234.84L0 180.69C0 170.43 7.43 162.78 17.86 162.78L60.55 162.78L57.37 174.46L17.97 174.46C13.95 174.46 11.62 176.73 11.62 180.69Z" />
		<path id="Path 3" fill-rule="evenodd" class="shp1" d="M123.08 216.75L74.38 216.75L74.38 234.84L62.7 234.84L62.7 198.78C62.7 193.79 63.5 188.92 65.42 184.27C71.09 170.38 83.96 162.78 98.76 162.78L128.86 162.78C132.15 162.78 134.76 165.39 134.76 168.68L134.76 234.84L123.08 234.84L123.08 216.75ZM123.08 205.07L123.08 174.46L98.76 174.46C97.28 174.46 95.24 174.69 93.83 174.97C87.31 176.22 81.35 179.39 77.84 185.23C75.34 189.37 74.38 194.02 74.38 198.78L74.38 205.07L123.08 205.07Z" />
		<path id="Path 4" class="shp0" d="M174.27 217.71C178.02 217.71 181.08 214.71 181.08 210.97C181.08 207.23 178.02 204.22 174.27 204.22C170.59 204.22 167.53 207.23 167.53 210.97C167.53 214.71 170.59 217.71 174.27 217.71Z" />
		<path id="Path 5" fill-rule="evenodd" class="shp2" d="M194.8 1.04C213.85 1.04 231.03 8.75 243.5 21.22C255.97 33.7 263.74 50.93 263.74 69.98C263.74 89.03 255.97 106.21 243.5 118.68C231.03 131.15 213.85 138.92 194.8 138.92C175.75 138.92 158.52 131.15 146.04 118.68C133.57 106.21 125.86 89.03 125.86 69.98C125.86 50.93 133.57 33.7 146.04 21.22C158.52 8.75 175.75 1.04 194.8 1.04ZM237.6 27.18C226.6 16.23 211.52 9.49 194.8 9.49C178.07 9.49 162.94 16.23 152 27.18C141.05 38.12 134.31 53.26 134.31 69.98C134.31 86.7 141.05 101.78 152 112.78C162.94 123.72 178.07 130.47 194.8 130.47C211.52 130.47 226.6 123.72 237.55 112.78C248.54 101.78 255.29 86.7 255.29 69.98C255.29 53.26 248.54 38.12 237.6 27.18Z" />
		<path id="Path 6" class="shp3" d="M194.8 122.31C223.6 122.31 247.13 98.78 247.13 69.98C247.13 41.12 223.6 17.59 194.8 17.59C165.94 17.59 142.42 41.12 142.42 69.98C142.42 98.78 165.94 122.31 194.8 122.31Z" />
		<path id="Path 7" class="shp0" d="M204.1 88.86C205.06 87.84 206.76 87.78 207.78 88.8C208.86 89.76 208.86 91.46 207.84 92.48C206.03 94.41 204.27 96 202.28 97.3C200.24 98.66 198.03 99.74 195.42 100.65C195.08 100.76 194.74 100.76 194.46 100.76C194.12 100.76 193.78 100.76 193.44 100.65C190.83 99.74 188.62 98.66 186.64 97.3C184.6 96 182.84 94.41 181.02 92.48C180 91.46 180.06 89.76 181.08 88.8C182.1 87.78 183.8 87.84 184.82 88.86C186.35 90.5 187.88 91.86 189.53 92.94C191 93.9 192.59 94.7 194.46 95.38C196.33 94.7 197.92 93.9 199.34 92.94C200.98 91.86 202.51 90.5 204.1 88.86ZM215.49 93.79C216.4 92.65 218.04 92.48 219.18 93.39C220.31 94.3 220.48 95.94 219.63 97.08C216.46 100.99 212.83 104.33 208.69 107.06C204.61 109.78 200.13 111.93 195.2 113.57C194.52 113.74 193.89 113.74 193.33 113.46C188.39 111.87 183.86 109.78 179.72 107.11C175.86 104.62 172.41 101.61 169.4 98.04C169.18 97.7 169.06 97.7 168.84 97.36C167.93 96.23 168.1 94.58 169.23 93.67C170.37 92.77 172.01 92.99 172.92 94.13C173.14 94.41 173.2 94.36 173.43 94.64C176.09 97.81 179.15 100.48 182.55 102.69C186.13 105.01 190.1 106.83 194.4 108.3C198.49 106.83 202.34 105.01 205.8 102.69C209.43 100.25 212.72 97.3 215.49 93.79ZM208.58 38.46C207.22 37.95 206.53 36.42 207.05 35.06C207.56 33.7 209.03 33.01 210.39 33.53C214.59 35.06 219.35 37.44 223.71 40.21C227.79 42.77 231.54 45.66 234.2 48.55C234.66 49.06 234.88 49.74 234.88 50.42C234.99 54.45 234.77 58.3 234.37 61.93C234.03 65.61 233.46 69.07 232.9 72.25C232.67 73.72 231.31 74.68 229.89 74.4C228.48 74.17 227.51 72.81 227.74 71.4C228.31 68.22 228.82 64.88 229.16 61.42C229.5 58.24 229.67 54.9 229.67 51.38C227.34 49.12 224.28 46.79 220.94 44.64C216.85 42.09 212.43 39.87 208.58 38.46ZM179.1 33.52C180.46 33.01 181.99 33.69 182.5 35.05C183.01 36.42 182.33 37.95 180.97 38.46C177.11 39.87 172.75 42.08 168.66 44.64C165.32 46.73 162.26 49.11 159.93 51.44C159.88 54.9 159.93 58.3 160.16 61.53L160.16 61.59C160.39 65.05 160.78 68.28 161.52 71.23C161.8 72.64 160.95 74.06 159.54 74.4C158.12 74.74 156.7 73.83 156.36 72.41C155.63 69.18 155.17 65.67 154.89 61.93L154.89 61.87C154.66 58.24 154.6 54.39 154.72 50.42C154.72 49.74 154.94 49.06 155.4 48.55C158.12 45.66 161.8 42.77 165.89 40.21C170.2 37.44 174.96 35.05 179.1 33.52ZM208.35 49.29C206.99 48.72 206.37 47.19 206.99 45.83C207.56 44.52 209.09 43.9 210.45 44.47C212.89 45.54 215.32 46.68 217.59 47.93C219.92 49.23 222.13 50.76 224.11 52.63C224.68 53.2 224.96 53.93 224.9 54.73C224.79 57.34 224.68 59.43 224.45 61.36C224.28 63.35 224 65.22 223.6 67.43C223.37 68.84 222.01 69.81 220.6 69.58C219.12 69.3 218.16 67.94 218.44 66.52C218.78 64.42 219.06 62.61 219.23 60.79C219.4 59.26 219.52 57.62 219.63 55.64C218.21 54.5 216.68 53.42 214.98 52.52C212.89 51.33 210.62 50.31 208.35 49.29ZM180.17 44.47C181.53 43.9 183.06 44.52 183.63 45.83C184.25 47.19 183.63 48.72 182.27 49.29C180 50.31 177.73 51.33 175.64 52.52C173.94 53.48 172.41 54.5 170.99 55.63C171.1 57.62 171.21 59.26 171.38 60.79C171.55 62.61 171.84 64.42 172.18 66.52C172.41 67.94 171.5 69.3 170.02 69.58C168.61 69.81 167.25 68.84 167.02 67.43C166.62 65.22 166.34 63.34 166.17 61.36C165.94 59.38 165.83 57.28 165.72 54.61C165.72 53.88 165.94 53.14 166.51 52.63C168.49 50.76 170.7 49.23 173.03 47.92C175.3 46.68 177.73 45.54 180.17 44.47ZM196.56 32.16C196.61 30.75 197.81 29.56 199.22 29.61C200.7 29.61 201.83 30.8 201.83 32.22C201.72 38.63 201.72 45.03 201.72 51.38L201.72 60.96L201.72 61.02C201.72 62.04 202.11 62.95 202.79 63.74C203.53 64.76 204.66 65.61 205.97 66.41L229.55 78.93C230.86 79.62 231.37 81.2 230.69 82.45C230.01 83.75 228.42 84.26 227.12 83.58L203.47 71.05L203.36 70.94C201.55 69.86 199.9 68.56 198.66 67.03C197.29 65.27 196.44 63.29 196.5 60.96L196.5 51.38C196.5 44.98 196.5 38.57 196.56 32.16ZM187.71 32.22C187.66 30.8 188.85 29.61 190.26 29.61C191.74 29.55 192.93 30.75 192.93 32.16C193.04 38.57 193.04 44.98 193.04 51.38L193.04 60.96C193.04 63.29 192.25 65.27 190.89 67.03C189.64 68.56 188 69.86 186.18 70.94L186.07 71.05L162.37 83.58C161.12 84.26 159.54 83.75 158.86 82.45C158.17 81.2 158.69 79.62 159.93 78.93L183.57 66.41C184.82 65.61 185.96 64.76 186.75 63.74C187.43 62.95 187.83 62.04 187.77 61.02L187.77 60.96L187.77 51.38C187.77 45.03 187.77 38.63 187.71 32.22ZM225.98 86.87C227.29 87.55 227.8 89.14 227.12 90.44C226.44 91.75 224.85 92.26 223.54 91.58C217.82 88.63 212.55 85.74 207.1 82.85C204.78 81.6 202.4 80.35 198.66 78.31C198.6 78.31 198.54 78.25 198.49 78.25C197.18 77.58 196.05 77.18 194.97 77.12C193.89 77.07 192.7 77.35 191.4 78.08L166.79 91.12C165.55 91.86 163.9 91.35 163.22 90.05C162.54 88.8 163.05 87.16 164.3 86.48L188.9 73.38C191.12 72.19 193.16 71.74 195.2 71.85C197.18 71.91 199 72.53 200.98 73.55C201.04 73.61 201.09 73.61 201.15 73.66C203.19 74.74 206.42 76.44 209.6 78.2C215.04 81.09 220.37 83.98 225.98 86.87Z" />
		<path id="Path 8" fill-rule="evenodd" class="shp1" d="M381.32 216.75L332.62 216.75L332.62 234.84L320.94 234.84L320.94 198.78C320.94 193.79 321.79 188.92 323.66 184.27C329.33 170.38 342.2 162.78 356.99 162.78L387.1 162.78C390.39 162.78 392.99 165.39 392.99 168.68L392.99 234.84L381.32 234.84L381.32 216.75ZM381.32 205.07L381.32 174.46L356.99 174.46C355.52 174.46 353.54 174.69 352.06 174.97C345.54 176.22 339.65 179.39 336.08 185.23C333.58 189.37 332.62 194.02 332.62 198.78L332.62 205.07L381.32 205.07Z" />
	</g>
</svg>