<svg xmlns="http://www.w3.org/2000/svg" viewBox="0 0 561 140" width="561" height="140">
	<defs>
		<clipPath clipPathUnits="userSpaceOnUse" id="cp1">
			<path d="M0 0L561 0L561 140L0 140Z" />
		</clipPath>
	</defs>
	<style>
		tspan { white-space:pre }
		.shp0 { fill: #d4d0d0 } 
		.shp1 { fill: #1e1e24 } 
		.shp2 { fill: #1e1e24;stroke: #1e1e24;stroke-width: 2 } 
		.shp3 { fill: #e72b2a } 
	</style>
	<g id="Page 1" clip-path="url(#cp1)">
		<path id="Path 1" class="shp0" d="M69.61 131.98C104.12 131.98 132.31 103.79 132.31 69.28C132.31 34.71 104.12 6.52 69.61 6.52C35.04 6.52 6.85 34.71 6.85 69.28C6.85 103.79 35.04 131.98 69.61 131.98Z" />
		<path id="Path 2" fill-rule="evenodd" class="shp1" d="M400.63 60.21C403.29 46.04 413.83 35.21 428.46 32.49C430.84 32.03 433.39 31.81 436 31.81L466.11 31.81C466.56 31.81 466.9 31.86 467.3 31.92C467.69 31.98 468.03 32.09 468.43 32.26C468.77 32.43 469.11 32.6 469.45 32.77C469.73 33 470.02 33.22 470.3 33.51C470.58 33.79 470.81 34.07 471.04 34.41C471.21 34.7 471.43 35.04 471.55 35.38C471.72 35.77 471.83 36.11 471.89 36.51C472 36.91 472 37.31 472 37.7L472 92.52L474.21 92.52C475.69 92.52 476.99 93.09 477.84 94.17C478.81 95.25 479.37 96.89 479.43 99.1L479.43 112.03L468.03 112.03L468.03 103.92L401.65 103.92L401.65 112.03L390.31 112.03L390.31 99.16C390.36 96.95 390.82 95.3 391.84 94.22C392.86 93.2 394.5 92.58 397.05 92.52L399.94 92.52L399.94 67.81C399.94 65.2 400.17 62.65 400.63 60.21ZM411.62 92.52L460.32 92.52L460.32 43.48L436 43.48C424.78 43.48 413.95 50.74 412.02 62.53C411.79 64.12 411.62 65.93 411.62 67.81L411.62 92.52ZM386.23 75.86C385.66 76.7 384.98 77.56 384.3 78.29C380.9 81.86 373.81 85.61 368.88 85.61C368.03 85.72 367.23 85.78 366.38 85.78L354.42 85.78L354.42 74.1L366.5 74.1C373.87 73.47 378.63 68.99 378.63 61.79L378.63 55.67C377.89 48.93 374.21 43.48 366.38 43.48L336.28 43.48C335.26 43.48 334.41 43.6 333.61 43.88C332.82 44.16 332.14 44.56 331.57 45.13C331.06 45.69 330.61 46.32 330.38 47.17C330.1 47.91 329.93 48.76 329.93 49.72L329.93 103.86L318.31 103.86L318.31 49.72C318.31 39.17 326.19 31.8 336.16 31.8L366.38 31.8C380.56 31.8 390.31 42.41 390.31 55.73C390.31 59.07 390.48 62.76 390.02 65.99C389.63 68.88 388.1 73.59 386.23 75.86ZM179.35 49.72L179.35 103.86L167.73 103.86L167.73 49.72C167.73 39.46 175.16 31.81 185.59 31.81L228.28 31.81L225.11 43.48L185.7 43.48C181.68 43.48 179.35 45.75 179.35 49.72Z" />
		<path id="Path 3" fill-rule="evenodd" class="shp1" d="M290.81 85.78L242.11 85.78L242.11 103.86L230.43 103.86L230.43 67.81C230.43 62.82 231.23 57.94 233.15 53.29C238.82 39.4 251.69 31.81 266.49 31.81L296.6 31.81C299.88 31.81 302.49 34.41 302.49 37.7L302.49 103.86L290.81 103.86L290.81 85.78ZM290.81 74.1L290.81 43.48L266.49 43.48C265.02 43.48 262.98 43.71 261.56 43.99C255.04 45.24 249.09 48.42 245.57 54.26C243.08 58.39 242.11 63.04 242.11 67.81L242.11 74.1L290.81 74.1Z" />
		<path id="Path 4" class="shp0" d="M342.01 86.74C345.75 86.74 348.81 83.74 348.81 79.99C348.81 76.25 345.75 73.25 342.01 73.25C338.32 73.25 335.26 76.25 335.26 79.99C335.26 83.74 338.32 86.74 342.01 86.74Z" />
		<path id="Path 5" fill-rule="evenodd" class="shp2" d="M69.94 1.12C88.99 1.12 106.17 8.83 118.64 21.3C131.11 33.78 138.88 51.01 138.88 70.06C138.88 89.11 131.11 106.29 118.64 118.76C106.17 131.23 88.99 139 69.94 139C50.89 139 33.66 131.23 21.18 118.76C8.71 106.29 1 89.11 1 70.06C1 51.01 8.71 33.78 21.18 21.3C33.66 8.83 50.89 1.12 69.94 1.12ZM112.74 27.26C101.74 16.32 86.66 9.57 69.94 9.57C53.21 9.57 38.08 16.32 27.14 27.26C16.19 38.2 9.45 53.34 9.45 70.06C9.45 86.79 16.19 101.87 27.14 112.86C38.08 123.81 53.21 130.55 69.94 130.55C86.66 130.55 101.74 123.81 112.69 112.86C123.68 101.87 130.43 86.79 130.43 70.06C130.43 53.34 123.68 38.2 112.74 27.26Z" />
		<path id="Path 6" class="shp3" d="M69.94 122.39C98.74 122.39 122.27 98.86 122.27 70.06C122.27 41.21 98.74 17.68 69.94 17.68C41.08 17.68 17.55 41.21 17.55 70.06C17.55 98.86 41.08 122.39 69.94 122.39Z" />
		<path id="Path 7" class="shp0" d="M79.24 88.94C80.2 87.92 81.9 87.86 82.92 88.88C84 89.85 84 91.55 82.98 92.57C81.16 94.5 79.41 96.08 77.42 97.39C75.38 98.75 73.17 99.82 70.56 100.73C70.22 100.85 69.88 100.85 69.6 100.85C69.26 100.85 68.92 100.85 68.58 100.73C65.97 99.82 63.76 98.75 61.77 97.39C59.73 96.08 57.98 94.5 56.16 92.57C55.14 91.55 55.2 89.85 56.22 88.88C57.24 87.86 58.94 87.92 59.96 88.94C61.49 90.58 63.02 91.95 64.67 93.02C66.14 93.98 67.73 94.78 69.6 95.46C71.47 94.78 73.06 93.98 74.47 93.02C76.12 91.95 77.65 90.58 79.24 88.94ZM90.63 93.87C91.54 92.74 93.18 92.57 94.32 93.48C95.45 94.38 95.62 96.03 94.77 97.16C91.6 101.07 87.97 104.42 83.83 107.14C79.75 109.86 75.27 112.01 70.33 113.66C69.65 113.83 69.03 113.83 68.46 113.55C63.53 111.96 59 109.86 54.86 107.2C51 104.7 47.54 101.7 44.54 98.12C44.31 97.78 44.2 97.78 43.97 97.44C43.07 96.31 43.24 94.67 44.37 93.76C45.5 92.85 47.15 93.08 48.05 94.21C48.28 94.5 48.34 94.44 48.57 94.72C51.23 97.9 54.29 100.56 57.69 102.77C61.26 105.1 65.23 106.91 69.54 108.39C73.62 106.91 77.48 105.1 80.94 102.77C84.57 100.33 87.85 97.39 90.63 93.87ZM83.71 38.54C82.35 38.03 81.67 36.5 82.18 35.14C82.69 33.78 84.17 33.1 85.53 33.61C89.72 35.14 94.49 37.52 98.85 40.3C102.93 42.85 106.67 45.74 109.34 48.63C109.79 49.14 110.02 49.82 110.02 50.5C110.13 54.53 109.91 58.38 109.51 62.01C109.17 65.7 108.6 69.15 108.04 72.33C107.81 73.8 106.45 74.77 105.03 74.48C103.61 74.26 102.65 72.9 102.88 71.48C103.44 68.3 103.95 64.96 104.29 61.5C104.63 58.33 104.8 54.98 104.8 51.47C102.48 49.2 99.42 46.87 96.07 44.72C91.99 42.17 87.57 39.96 83.71 38.54ZM54.23 33.61C55.6 33.1 57.13 33.78 57.64 35.14C58.15 36.5 57.47 38.03 56.11 38.54C52.25 39.96 47.88 42.17 43.8 44.72C40.46 46.82 37.4 49.2 35.07 51.52C35.02 54.98 35.07 58.38 35.3 61.61L35.3 61.67C35.53 65.13 35.92 68.36 36.66 71.31C36.94 72.73 36.09 74.14 34.68 74.48C33.26 74.82 31.84 73.92 31.5 72.5C30.76 69.27 30.31 65.75 30.03 62.01L30.03 61.95C29.8 58.33 29.74 54.47 29.86 50.5C29.86 49.82 30.08 49.14 30.54 48.63C33.26 45.74 36.94 42.85 41.03 40.3C45.33 37.52 50.1 35.14 54.23 33.61ZM83.49 49.37C82.13 48.8 81.5 47.27 82.13 45.91C82.69 44.61 84.23 43.98 85.59 44.55C88.02 45.63 90.46 46.76 92.73 48.01C95.05 49.31 97.26 50.84 99.25 52.71C99.82 53.28 100.1 54.02 100.04 54.81C99.93 57.42 99.82 59.52 99.59 61.44C99.42 63.43 99.14 65.3 98.74 67.51C98.51 68.93 97.15 69.89 95.73 69.66C94.26 69.38 93.3 68.02 93.58 66.6C93.92 64.5 94.2 62.69 94.37 60.88C94.54 59.35 94.66 57.7 94.77 55.72C93.35 54.58 91.82 53.51 90.12 52.6C88.02 51.41 85.76 50.39 83.49 49.37ZM55.31 44.55C56.67 43.98 58.2 44.61 58.77 45.91C59.39 47.27 58.77 48.8 57.41 49.37C55.14 50.39 52.87 51.41 50.78 52.6C49.08 53.56 47.55 54.59 46.13 55.72C46.24 57.7 46.35 59.35 46.52 60.88C46.69 62.69 46.98 64.51 47.32 66.6C47.55 68.02 46.64 69.38 45.16 69.67C43.75 69.89 42.39 68.93 42.16 67.51C41.76 65.3 41.48 63.43 41.31 61.44C41.08 59.46 40.97 57.36 40.86 54.7C40.86 53.96 41.08 53.22 41.65 52.71C43.63 50.84 45.84 49.31 48.17 48.01C50.44 46.76 52.87 45.63 55.31 44.55ZM71.7 32.25C71.75 30.83 72.94 29.64 74.36 29.7C75.83 29.7 76.97 30.89 76.97 32.3C76.86 38.71 76.86 45.12 76.86 51.47L76.86 61.05L76.86 61.1C76.86 62.12 77.25 63.03 77.93 63.83C78.67 64.85 79.8 65.7 81.11 66.49L104.69 79.02C105.99 79.7 106.51 81.29 105.82 82.53C105.14 83.84 103.56 84.35 102.25 83.67L78.61 71.14L78.5 71.03C76.68 69.95 75.04 68.64 73.79 67.11C72.43 65.36 71.58 63.37 71.64 61.05L71.64 51.47C71.64 45.06 71.64 38.65 71.7 32.25ZM62.85 32.3C62.8 30.89 63.99 29.7 65.4 29.7C66.88 29.64 68.07 30.83 68.07 32.25C68.18 38.65 68.18 45.06 68.18 51.47L68.18 61.05C68.18 63.37 67.39 65.36 66.03 67.11C64.78 68.64 63.14 69.95 61.32 71.02L61.21 71.14L37.51 83.67C36.26 84.35 34.68 83.84 34 82.53C33.31 81.29 33.83 79.7 35.07 79.02L58.71 66.49C59.96 65.7 61.1 64.85 61.89 63.82C62.57 63.03 62.97 62.12 62.91 61.1L62.91 61.05L62.91 51.47C62.91 45.12 62.91 38.71 62.85 32.3ZM101.12 86.96C102.42 87.64 102.93 89.22 102.25 90.53C101.57 91.83 99.99 92.34 98.68 91.66C92.96 88.71 87.68 85.82 82.24 82.93C79.92 81.68 77.54 80.44 73.79 78.4C73.74 78.4 73.68 78.34 73.62 78.34C72.32 77.66 71.19 77.26 70.11 77.21C69.03 77.15 67.84 77.43 66.54 78.17L41.93 91.21C40.68 91.95 39.04 91.43 38.36 90.13C37.68 88.88 38.19 87.24 39.44 86.56L64.04 73.46C66.25 72.27 68.29 71.82 70.33 71.93C72.32 71.99 74.13 72.61 76.12 73.63C76.17 73.69 76.23 73.69 76.29 73.75C78.33 74.82 81.56 76.52 84.74 78.28C90.18 81.17 95.51 84.07 101.12 86.96Z" />
		<path id="Path 8" fill-rule="evenodd" class="shp1" d="M549.05 85.78L500.35 85.78L500.35 103.86L488.67 103.86L488.67 67.81C488.67 62.82 489.52 57.94 491.39 53.29C497.06 39.4 509.93 31.81 524.73 31.81L554.83 31.81C558.12 31.81 560.73 34.41 560.73 37.7L560.73 103.86L549.05 103.86L549.05 85.78ZM549.05 74.1L549.05 43.48L524.73 43.48C523.25 43.48 521.27 43.71 519.79 43.99C513.27 45.24 507.38 48.42 503.81 54.26C501.31 58.39 500.35 63.04 500.35 67.81L500.35 74.1L549.05 74.1Z" />
	</g>
</svg>