<svg xmlns="http://www.w3.org/2000/svg" viewBox="0 0 76 65" width="76" height="65">
	<defs>
		<clipPath clipPathUnits="userSpaceOnUse" id="cp1">
			<path d="M0 0L76 0L76 65L0 65Z" />
		</clipPath>
	</defs>
	<style>
		tspan { white-space:pre }
		.shp0 { fill: #ffffff } 
	</style>
	<g id="Page 1" clip-path="url(#cp1)">
		<path id="Path 1" class="shp0" d="M64.46 3.43L64.46 60.75C63.27 61.94 61.96 63.02 60.55 64.04C59.53 64.38 58.45 64.66 57.37 65L57.37 0.48C59.41 1.05 61.34 1.62 63.21 2.24C63.67 2.64 64.06 3.04 64.46 3.43Z" />
		<path id="Path 2" fill-rule="evenodd" class="shp0" d="M71.21 50.54C68.2 56.1 63.89 60.81 58.62 64.21L58.62 63.36L71.21 50.54ZM75.51 36.48C75.4 37.39 75.29 38.3 75.12 39.15L58.62 56.04L58.62 53.72L75.51 36.48ZM75.63 31.44C75.68 31.89 75.68 32.29 75.68 32.74L75.68 33.76L58.62 51.11L58.62 48.84L75.63 31.44ZM75.23 27.07C75.34 27.75 75.46 28.43 75.51 29.11L58.62 46.41L58.62 44.08L75.23 27.07ZM74.44 23.05C74.61 23.67 74.72 24.29 74.83 24.92L58.62 41.47L58.62 39.21L74.44 23.05ZM73.25 19.48C73.47 20.04 73.7 20.55 73.87 21.12L58.62 36.71L58.62 34.39L73.25 19.48ZM71.83 16.07C72.06 16.59 72.28 17.09 72.51 17.66L58.62 31.84L58.62 29.57L71.83 16.07ZM70.13 13.01C70.41 13.52 70.7 13.98 70.98 14.49L58.62 27.07L58.62 24.75L70.13 13.01ZM68.14 10.18C68.49 10.58 68.83 11.03 69.11 11.48L58.62 22.2L58.62 19.93L68.14 10.18ZM65.99 7.57C66.39 7.97 66.73 8.36 67.07 8.76L58.62 17.44L58.62 15.11L65.99 7.57ZM63.61 5.13C64.01 5.47 64.4 5.87 64.74 6.27L58.62 12.5L58.62 10.24L63.61 5.13ZM61.06 2.98C61.51 3.32 61.91 3.6 62.31 4L58.62 7.74L58.62 5.47L61.06 2.98ZM58.62 1.22C58.96 1.45 59.24 1.67 59.58 1.9L58.62 2.87L58.62 1.22ZM58.62 58.54L74.44 42.38C74.1 43.51 73.76 44.65 73.36 45.72L58.62 60.81L58.62 58.54ZM32.77 41.76C32.14 41.47 31.75 41.13 31.52 40.68C31.24 40.22 31.07 39.71 30.95 39.15C30.9 38.69 30.84 38.24 30.78 37.79C30.61 36.94 30.5 36.09 30.22 35.18C30.05 34.78 30.1 34.78 30.44 35.01C31.24 35.52 32.03 35.86 32.82 36.2C33.22 36.37 33.62 36.54 34.07 36.77C34.58 36.99 35.04 37.28 35.38 37.67C35.77 38.07 36 38.52 36.11 39.15C36.17 39.6 36.11 40.05 35.94 40.45C35.77 40.79 35.49 41.13 35.15 41.42C34.81 41.7 34.41 41.87 34.02 41.93C33.62 41.98 33.16 41.93 32.77 41.76ZM45.81 45.44C45.18 45.16 44.79 44.82 44.56 44.36C44.28 43.91 44.11 43.4 43.99 42.83C43.94 42.32 43.88 41.93 43.77 41.47C43.65 40.62 43.54 39.77 43.26 38.86C43.09 38.47 43.14 38.47 43.48 38.64C44.28 39.2 45.07 39.54 45.86 39.88C46.26 40.05 46.66 40.22 47.11 40.45C47.62 40.68 48.08 40.96 48.42 41.36C48.81 41.76 49.04 42.21 49.15 42.83C49.21 43.29 49.15 43.74 48.98 44.14C48.81 44.48 48.53 44.82 48.19 45.1C47.85 45.33 47.45 45.55 47.06 45.61C46.66 45.67 46.21 45.61 45.81 45.44ZM2.66 12.22C3.91 12.22 5.22 12.33 6.58 12.45C9.47 12.79 12.87 13.13 14.46 12.39C15.65 11.88 16.61 11.09 16.78 10.07C17.29 7.4 14.91 4.68 11.05 6.1C12.81 4.11 15.19 4.34 16.89 5.64C18.25 3.6 20.98 2.58 24.26 4.62C26.87 0.2 32.03 0.03 34.24 3.49C34.7 4.17 35.04 5.02 35.15 6.04C36.85 6.49 38.38 7.51 39.23 8.99C40.7 11.6 40.93 13.81 40.36 15.56C44.28 16.07 52.44 17.66 54.2 15.05C55.73 12.84 54.14 9.16 50.91 9.05C50.23 9.05 49.55 9.1 48.76 9.33C47.62 3.94 44.56 3.6 40.59 4.91C43.6 2.7 47.4 2.18 50.4 7.17C51.42 6.95 52.5 7.06 53.57 7.46C55.84 8.19 56.98 9.72 57.32 11.43C58.11 15.62 55.1 18.29 51.19 18.34C47.96 18.4 43.94 17.38 39.91 16.7C38.21 19.7 34.07 21.35 29.82 21.74C27.1 21.97 24.38 21.8 22.05 21.57C14.4 20.84 7.65 17.72 0 17.78C0.17 17.44 0.28 17.04 0.45 16.7C6.86 16.13 13.15 18.17 19.67 18.97C22.73 19.31 27.67 19.42 31.46 18.46C34.07 17.78 36.96 16.19 37.08 13.18C37.08 12.67 37.02 12.11 36.85 11.6C36.34 9.78 35.15 9.21 34.07 9.27C34.02 9.27 33.96 9.33 33.9 9.27C34.35 4 30.44 2.58 27.89 4.51C26.98 5.19 26.42 5.76 25.79 7.23C21.37 4.96 18.94 5.3 17.86 6.61C19.05 8.02 19.56 10.01 18.71 11.88C19.1 12.28 19.61 12.56 20.13 12.67C21.83 13.07 23.41 12.73 24.94 11.43C24.15 16.3 29.71 15.9 30.9 15.68C26.42 17.61 24.89 15.56 23.13 13.92C20.69 14.09 19.16 13.58 18.14 12.9C17.86 13.24 17.57 13.58 17.18 13.92C15.82 15.11 13.32 15.68 10.94 15.45C8.79 15.34 7.14 14.71 5.44 14.49C4.08 14.32 2.83 14.15 1.64 14.09C1.98 13.47 2.32 12.84 2.66 12.22ZM15.93 22.88C20.86 22.76 26.48 24.75 32.2 26.39C36.28 27.64 40.03 28.66 42.58 27.87C44.39 27.3 46.09 25.09 45.98 23.1C45.92 22.48 45.75 21.69 45.19 21.23C44.22 20.44 42.8 20.33 42.18 21.18C41.22 22.42 41.16 24.41 43.54 25.09L43.2 25.26C42.41 25.54 40.99 25.37 40.25 24.86C39.8 24.52 39.46 24.01 39.23 23.5C38.95 22.59 39.06 21.35 40.31 20.33C42.29 18.68 46.32 19.48 47.79 22.03C49.66 25.26 47.79 28.38 46.03 29.68C42.69 32.06 35.49 29.85 31.64 28.32C28.23 26.96 25.29 25.77 21.77 24.69C20.07 24.13 17.92 23.61 15.99 23.22C14.63 22.93 14.29 22.93 15.93 22.88ZM25.4 56.95C24.89 56.72 24.49 56.38 24.26 55.99C24.04 55.59 23.87 55.08 23.75 54.57C23.7 54.17 23.64 53.78 23.58 53.38C23.47 52.58 23.36 51.85 23.07 51C22.96 50.6 22.96 50.6 23.3 50.77C24.04 51.34 24.72 51.62 25.45 51.9C25.85 52.07 26.19 52.24 26.59 52.41C27.1 52.64 27.5 52.92 27.84 53.26C28.18 53.61 28.4 54.06 28.46 54.63C28.57 55.02 28.46 55.42 28.35 55.76C28.18 56.1 27.89 56.44 27.61 56.67C27.33 56.89 26.93 57.06 26.53 57.12C26.19 57.18 25.79 57.12 25.4 56.95ZM37.7 59.33C37.13 59.05 36.79 58.71 36.57 58.31C36.28 57.91 36.17 57.4 36.06 56.89C36 56.5 35.94 56.1 35.89 55.7C35.77 54.91 35.66 54.17 35.38 53.32C35.21 52.92 35.26 52.92 35.6 53.15C36.34 53.66 37.02 53.94 37.76 54.23C38.16 54.4 38.49 54.57 38.89 54.74C39.35 54.96 39.8 55.25 40.14 55.59C40.42 55.93 40.71 56.38 40.76 56.95C40.82 57.35 40.76 57.74 40.59 58.08C40.48 58.48 40.2 58.76 39.91 58.99C39.57 59.22 39.23 59.39 38.84 59.44C38.44 59.5 38.04 59.5 37.7 59.33Z" />
	</g>
</svg>