<svg xmlns="http://www.w3.org/2000/svg" viewBox="0 0 65 71" width="65" height="71">
	<defs>
		<clipPath clipPathUnits="userSpaceOnUse" id="cp1">
			<path d="M0 0L65 0L65 71L0 71Z" />
		</clipPath>
	</defs>
	<style>
		tspan { white-space:pre }
		.shp0 { fill: #ffffff } 
	</style>
	<g id="Page 1" clip-path="url(#cp1)">
		<path id="Path 1" class="shp0" d="M54.14 9.26L54.14 68.73C51.87 69.53 49.55 70.32 47.11 71L47.11 7.05C49.55 7.73 51.87 8.47 54.14 9.26Z" />
		<path id="Path 2" fill-rule="evenodd" class="shp0" d="M60.78 56.66C57.83 62.16 53.52 66.81 48.3 70.21L48.3 69.36L60.78 56.66ZM65.03 42.77C64.97 43.68 64.8 44.53 64.69 45.37L48.3 62.1L48.3 59.83L65.03 42.77ZM65.2 37.78L65.2 40.05L48.3 57.28L48.3 55.01L65.2 37.78ZM64.8 33.47C64.91 34.09 64.97 34.77 65.03 35.45L48.3 52.52L48.3 50.25L64.8 33.47ZM63.95 29.45C64.12 30.07 64.29 30.69 64.4 31.26L48.3 47.7L48.3 45.43L63.95 29.45ZM62.82 25.87C63.04 26.44 63.21 27.01 63.44 27.57L48.3 42.99L48.3 40.67L62.82 25.87ZM61.4 22.53C61.63 23.04 61.85 23.55 62.08 24.06L48.3 38.12L48.3 35.91L61.4 22.53ZM59.7 19.52C59.98 19.98 60.27 20.43 60.55 20.94L48.3 33.41L48.3 31.15L59.7 19.52ZM57.77 16.69C58.11 17.09 58.39 17.54 58.73 17.99L48.3 28.59L48.3 26.33L57.77 16.69ZM55.67 14.08C56.01 14.48 56.35 14.87 56.69 15.33L48.3 23.83L48.3 21.56L55.67 14.08ZM53.29 11.7C53.69 12.04 54.03 12.44 54.43 12.78L48.3 19.01L48.3 16.75L53.29 11.7ZM50.74 9.55C51.14 9.89 51.59 10.23 51.99 10.57L48.3 14.31L48.3 12.04L50.74 9.55ZM49.27 8.47L48.64 9.1C48.56 10.1 48.21 11.13 47.51 12.15C46.49 13.63 44.79 14.59 42.35 14.42C41.21 14.31 40.14 13.97 39.29 13.4C34.41 16.8 31.07 14.76 29.14 11.42C32.31 14.31 35.32 15.27 38.61 10.68C39.23 11.19 39.85 11.53 40.53 11.81C43.54 13 46.54 10.23 46.09 7.5C45.71 5.41 42.27 3.09 38.86 1.42C40.98 1.92 42.95 2.47 44.56 3.2C46.79 4.19 48.29 5.95 48.59 7.98C48.83 8.14 49.06 8.31 49.27 8.47ZM48.3 64.54L64.01 48.55C63.67 49.68 63.33 50.82 62.93 51.9L48.3 66.81L48.3 64.54ZM18.82 36.3C18.99 36.3 18.94 36.3 18.65 36.13C18.37 35.96 17.97 35.74 17.46 35.45C14.46 33.87 11.57 32.17 9.13 29.56C7.14 27.52 6.69 26.61 6.58 24.4C5.61 22.98 5.16 21.05 5.39 19.64C5.56 18.45 6.18 17.43 7.03 16.58C10.09 13.51 16.79 13.53 21.32 14.39L22.68 11.08C24.21 10.91 25.23 10.4 26.02 9.09C26.65 9.21 27.33 9.21 27.95 9.09L24.62 15.13C26.9 15.72 29.03 16.59 31.13 17.71L33.11 18.79C34.58 19.64 38.72 22.3 39.29 23.61C38.84 23.27 38.04 22.53 37.36 22.07C34.41 20.03 31.07 18.79 27.72 17.71C26.51 17.4 25.11 17.11 23.65 16.89L22.51 18.96L27.27 18.84L23.24 24.13C25.59 24.45 27.88 24.93 29.88 25.59C33 26.67 36.11 27.97 38.89 29.84C39.35 29.28 38.04 27.63 36.34 25.99C34.3 24.06 29.42 20.77 26.99 20.32C28.18 20.32 31.01 21 32.03 21.45C34.41 22.3 35.72 23.04 37.87 24.57C38.55 25.14 38.89 25.42 39.46 25.99C40.03 26.72 40.31 26.89 40.71 27.74C41.16 28.31 41.56 28.99 41.56 29.84C41.56 31.09 41.05 31.88 40.25 32.51C38.38 33.92 36.28 34.43 34.07 34.66C31.3 34.83 26.82 34.55 24.27 33.87C24.72 34.43 25.85 34.72 26.59 34.89C28.57 35.51 32.71 35.68 34.7 35.74C37.3 35.74 42.86 34.32 42.86 31.15L43.03 32C43.03 33.02 42.58 33.87 42.01 34.72C39.86 38.18 35.43 38.86 31.58 38.86C31.75 39.14 31.58 39.14 32.03 39.14C34.3 39.14 36.68 39.03 38.84 38.12C39.91 37.67 40.42 37.27 41.16 36.59C40.37 39.14 35.66 40.22 35.6 40.33C35.38 40.78 35.09 41.29 34.87 41.58C34.53 42.03 34.02 42.48 33.51 42.77C33.05 42.99 32.49 43.33 32.03 43.45C32.15 45.26 29.48 46.4 28.12 46.74C26.76 47.13 25.29 47.19 23.87 47.02C23.3 47.02 22.45 46.85 22.17 46.85C20.86 46.85 19.56 46.28 18.43 46.28L18.71 46.57C20.69 47.42 24.61 47.98 26.59 47.98L29.03 47.87C28.12 48.15 28.01 48.1 28.01 48.21C28.01 48.38 27.89 49.29 27.27 50.03C29.25 50.99 27.33 52.52 26.14 53.09C25.4 53.43 24.55 53.71 23.7 53.88C20.07 54.56 15.82 53.71 12.7 51.72C13.44 54.56 19.45 56.6 23.7 55.18C25.46 54.62 26.25 53.82 27.04 52.92C27.04 52.86 27.16 52.86 27.44 52.86C27.44 54.16 26.82 55.41 25.91 56.37C22 60.46 16.21 57.85 15.19 57.17L15.14 57.17C15.59 58.87 18.03 59.89 20.13 59.89C21.88 59.89 22.56 59.32 23.58 58.59C23.58 60 23.3 60.57 22.28 61.42C20.3 63.29 16.04 62.5 14.85 60C14.57 59.32 14.29 57.51 15.14 57.17C13.44 56.32 12.3 54.56 12.02 52.58C11.85 52.18 12.02 51.44 12.02 51.16C11.45 50.65 9.36 49.06 9.36 46.28C10.6 48.89 16.04 52.24 21.71 52.12C23.7 52.12 25.63 51.78 26.7 51.1C27.04 50.87 27.27 50.53 27.16 50.14C27.04 50.31 26.59 50.76 26.31 50.59C26.59 50.42 27.16 49.86 27.27 49.57C27.44 49.29 27.33 49.06 27.33 49.12C26.59 50.19 25.46 50.76 24.27 50.99C19.16 51.9 13.27 49.29 12.36 47.25C16.73 50.48 26.14 50.93 26.59 48.32C23.41 48.32 20.86 48.32 18.14 47.13C17.75 47.02 17.46 46.85 17.01 46.74C14.17 46 9.69 43.28 8.28 41.18L7.88 41.46C7.81 41.39 7.77 41.38 7.75 41.39L7.99 40.9C7.6 39.88 7.14 39.59 7.14 38.18L7.31 38.29C7.71 39.71 7.99 39.59 8.73 40.73C9.58 40.27 11.74 39.99 12.59 39.99L9.02 37.27C8.56 36.7 7.99 36.02 7.71 35.45C7.6 35.17 7.43 34.89 7.31 34.32C6.46 31.88 7.6 33.58 5.44 31.43C4.99 30.86 4.59 30.3 4.14 29.56C3.46 28.71 2.89 27.46 2.89 26.16L2.89 24.85L3.01 24.85C3.01 26.27 3.29 26.72 3.74 27.74C4.59 29.16 5.84 30.18 7.14 31.15C9.13 32.73 11.57 33.58 14 34.6C14.85 35 15.59 35.28 16.44 35.57C17.07 35.91 18.37 36.25 18.82 36.3ZM11.85 17.31C11 17.43 9.86 17.88 9.13 18.28C8.45 18.84 7.88 19.58 7.88 20.71C7.88 22.58 10.43 25.42 11.85 26.44C11.45 25.42 11.11 24.8 11.45 24.4C12.25 23.55 17.29 23.66 18.65 23.72C19.71 23.76 20.79 23.85 21.86 23.96L23.24 20.94L18.65 20.88L20.43 16.56C18.5 16.5 13.48 16.78 11.85 17.31ZM7.71 41.46C7.71 41.46 7.71 41.4 7.75 41.39L7.71 41.46ZM19.28 30.81C20.64 31.6 21.49 32 19.05 31.32C18.26 31.09 17.46 30.81 16.73 30.58C14.85 30.01 12.98 29.16 11.45 28.14C9.92 27.23 7.6 25.25 7.14 24.74C7.14 25.76 8.96 27.29 10.49 28.31C14.29 30.81 18.48 32.17 22.85 33.07C26.7 33.92 29.93 34.55 34.19 34.21C36.62 33.98 39.29 33.3 39.29 31.15C39.29 30.07 33.51 27.29 31.98 26.72C29.23 25.71 25.94 24.83 22.96 24.49L19.62 28.88L21.67 24.38C19.03 24.21 13.38 23.96 13.38 27.52C15.36 28.65 17.29 29.73 19.28 30.81ZM25.46 40.9C23.7 40.73 20.3 39.88 18.6 39.31C17.46 39.03 16.56 38.57 15.59 38.18C15.02 38.01 14.57 37.89 14.17 37.61C11.45 36.3 11.17 36.02 8.85 34.43C7.88 33.87 8.16 33.75 7.6 33.58C7.99 35.17 10.32 36.7 11.57 37.61C13.44 38.57 15.31 39.31 17.29 39.99C21.88 41.46 25.85 42.6 30.84 42.6C30.44 40.56 29.42 41.18 25.46 40.9ZM31.75 42.31C32.32 42.6 34.98 41.58 35.26 40.44C34.36 40.73 32.77 41.12 31.01 41.01C31.35 41.41 31.58 42.14 31.75 42.31ZM25.17 46.17C25.29 46 25.29 46 24.89 45.6C22.73 43.45 20.86 43.45 18.71 42.71C18.14 42.43 17.58 42.31 17.01 42.03C14.85 41.01 15.02 41.01 12.98 40.9C10.43 40.73 11.28 40.56 9.13 40.9C9.3 41.29 9.41 41.29 9.69 41.58C12.7 43.73 18.03 45.6 21.43 45.89C21.88 46 25 46.28 25.17 46.17ZM27.16 46.17C28.46 45.89 29.71 45.89 30.56 44.86C30.84 44.58 31.18 44.02 31.13 43.73C30.61 44.02 26.82 44.3 25.46 43.85C26.14 44.47 26.65 45.43 27.16 46.17ZM22.56 66.86C22.79 67.49 23.02 67.54 22.11 67.26C19.28 66.41 19.45 65.9 18.77 65.61C17.92 65.22 17.12 64.88 17.01 63.06C17.01 62.61 17.18 62.78 17.35 63.01C17.46 63.12 17.63 63.23 17.69 63.35C18.6 64.08 20.41 64.48 21.77 63.52C22.11 63.29 22.28 62.89 22.39 62.67C22.51 62.5 22.56 62.38 22.68 62.61C22.85 62.95 23.24 63.8 22.28 64.88C22.28 65.28 22.28 66.12 22.56 66.86ZM0.74 32.28C1.59 31.71 1.7 31.88 2.72 32L2.55 32L2.44 32.17L2.15 32.28C0.45 33.13 1.3 35.17 1.98 36.13L3.01 37.61C3.18 37.89 3.01 37.72 3.18 37.89C3.29 38.01 3.46 38.01 3.18 38.18L3.01 38.18L3.01 38.01L2.89 38.01C1.3 37.15 0 36.3 0 34.15C0 33.3 0.28 32.73 0.74 32.28ZM6.86 50.99C6.75 51.27 6.58 51.27 6.58 51.55C6.58 52.75 8.45 53.88 8.73 54.16C9.41 54.56 10.43 55.01 10.89 55.58C8.45 55.58 5.84 54.45 5.84 52.18C5.84 51.44 6.29 51.16 6.86 50.99ZM32.15 54.45C32.71 53.88 33.17 53.31 33.28 52.29C33.56 52.52 33.68 52.75 33.79 52.97C34.07 53.65 33.9 54.33 33.45 54.9C32.71 55.86 31.18 56.37 30.16 55.86C30.56 55.3 31.58 55.01 32.15 54.45ZM43.43 37.44C43.43 39.59 41.56 40.44 39.86 40.9L43.43 37.44ZM36.91 0.53C37.54 0.8 38.2 1.1 38.86 1.42C37.98 1.21 37.08 1.01 36.17 0.81L34.92 0.13C35.6 0.25 36.28 0.36 36.91 0.53ZM15.99 1.38C16.27 1.38 16.61 1.38 16.95 1.32C16.95 2.97 17.23 3.76 17.8 4.73C19.39 7.62 23.64 7.84 25.4 2.74C25.45 2.74 25.51 2.8 25.51 2.8C26.53 3.31 27.84 3.25 29.08 1.78C29.42 1.38 29.71 0.87 29.93 0.36C30.05 0.08 30.1 -0.15 30.16 -0.43C31.46 -0.38 32.71 -0.21 33.96 -0.04C33.62 1.72 32.48 3.54 30.27 5.18C28.86 6.26 26.99 6.6 25.23 6.31C24.72 7.16 24.04 7.84 23.36 8.3C19.84 10.62 15.08 8.35 14.46 3.2C13.32 3.37 12.36 3.31 11.56 3.08C12.98 2.4 14.46 1.84 15.99 1.38Z" />
	</g>
</svg>