<svg xmlns="http://www.w3.org/2000/svg" viewBox="0 0 42 45" width="42" height="45">
	<defs>
		<clipPath clipPathUnits="userSpaceOnUse" id="cp1">
			<path d="M0 0L42 0L42 45L0 45Z" />
		</clipPath>
	</defs>
	<style>
		tspan { white-space:pre }
		.shp0 { fill: #ffffff } 
		.txt1 { font-size: 17px;fill: #ffffff;font-family: "Arial" } 
	</style>
	<g id="Page 1" clip-path="url(#cp1)">
		<path id="Path 1" fill-rule="evenodd" class="shp0" d="M12.53 12.35L12.53 32.64C10.49 33.21 9.01 35.02 9.01 37.23C9.01 39.9 11.17 42 13.83 42C16.5 42 18.65 39.9 18.65 37.23C18.65 35.02 17.12 33.21 15.14 32.64L15.14 30.32L17.18 30.32L17.18 30.2C19.79 31.45 21.6 34.12 21.6 37.23C21.6 41.49 18.14 45 13.83 45C9.52 45 6.07 41.49 6.07 37.23C6.07 34.06 7.94 31.34 10.66 30.15L10.66 2.93C10.66 1.18 12.08 -0.24 13.83 -0.24C15.59 -0.24 17.01 1.18 17.01 2.93L17.01 3.96L15.08 3.96L15.08 5.26L17.01 5.26L17.01 8.15L15.08 8.15L15.08 9.45L17.01 9.45L17.01 12.35L12.53 12.35ZM17.01 16.49L15.14 16.49L15.14 13.59L17.01 13.59L17.01 16.49ZM17.01 20.68L15.14 20.68L15.14 17.79L17.01 17.79L17.01 20.68ZM17.01 24.82L15.14 24.82L15.14 21.98L17.01 21.98L17.01 24.82ZM17.01 29.01L15.14 29.01L15.14 26.12L17.01 26.12L17.01 29.01ZM0.85 25.21L5.56 25.21L5.56 26.86L0.85 26.86C0.4 26.86 0 26.46 0 26.01C0 25.55 0.4 25.21 0.85 25.21ZM2.95 21.36L5.56 21.36L5.56 23L2.95 23C2.49 23 2.15 22.66 2.15 22.21C2.15 21.76 2.49 21.36 2.95 21.36ZM0.85 17.56L5.56 17.56L5.56 19.2L0.85 19.2C0.4 19.2 0 18.81 0 18.35C0 17.9 0.4 17.56 0.85 17.56ZM3.17 13.71L5.56 13.71L5.56 15.35L3.17 15.35C2.72 15.35 2.32 15.01 2.32 14.56C2.32 14.1 2.72 13.71 3.17 13.71ZM0.85 9.91L5.56 9.91L5.56 11.55L0.85 11.55C0.4 11.55 0 11.15 0 10.7C0 10.25 0.4 9.91 0.85 9.91ZM2.95 6.05L5.56 6.05L5.56 7.7L2.95 7.7C2.49 7.7 2.15 7.36 2.15 6.85C2.15 6.45 2.49 6.05 2.95 6.05ZM0.85 2.2L5.56 2.2L5.56 3.9L0.85 3.9C0.4 3.9 0 3.5 0 3.05C0 2.59 0.4 2.2 0.85 2.2ZM25.17 0.84C25.97 0.84 26.65 1.18 27.21 1.69C27.72 2.25 28.01 2.93 28.01 3.73C28.01 4.52 27.72 5.26 27.21 5.77C26.65 6.34 25.97 6.62 25.17 6.62C24.38 6.62 23.64 6.34 23.13 5.77C22.56 5.26 22.28 4.52 22.28 3.73C22.28 2.93 22.56 2.25 23.13 1.69C23.64 1.18 24.38 0.84 25.17 0.84ZM26.31 2.59C25.97 2.31 25.57 2.14 25.17 2.14C24.72 2.14 24.32 2.31 24.04 2.59C23.7 2.88 23.53 3.33 23.53 3.73C23.53 4.18 23.7 4.58 24.04 4.86C24.32 5.2 24.72 5.37 25.17 5.37C25.57 5.37 25.97 5.2 26.31 4.86C26.59 4.58 26.76 4.18 26.76 3.73C26.76 3.33 26.59 2.88 26.31 2.59Z" />
		<text id="C " style="transform: matrix(1.001,0,0,0.999,29.304,15.367)" >
			<tspan x="0" y="0" class="txt1">C</tspan>
		</text>
	</g>
</svg>