<svg xmlns="http://www.w3.org/2000/svg" viewBox="0 0 34 29" width="34" height="29">
	<defs>
		<clipPath clipPathUnits="userSpaceOnUse" id="cp1">
			<path d="M0 0L34 0L34 29L0 29Z" />
		</clipPath>
	</defs>
	<style>
		tspan { white-space:pre }
		.shp0 { fill: #353337 } 
	</style>
	<g id="Page 1" clip-path="url(#cp1)">
		<path id="Path 1" class="shp0" d="M18.49 2.03C18.49 0.97 19.31 0.03 20.36 0.03C21.42 0.03 22.35 0.97 22.35 2.03L22.35 4.72L22.35 11.75C22.35 12.45 22.59 13.16 23.06 13.86C23.64 14.56 24.46 15.15 25.4 15.74L33.37 19.95C34.3 20.42 34.66 21.59 34.19 22.53C33.72 23.47 32.55 23.82 31.61 23.35L23.64 19.13L23.52 19.13C22.24 18.31 20.95 17.38 20.01 16.2C19.07 14.92 18.49 13.39 18.49 11.75L18.49 4.72L18.49 2.03ZM12.04 2.03C12.04 0.97 12.98 0.03 14.03 0.03C15.09 0.03 15.91 0.97 15.91 2.03L15.91 4.25L15.91 11.75C15.91 13.39 15.32 14.92 14.39 16.2C13.45 17.38 12.16 18.31 10.87 19.13L10.75 19.13L2.79 23.35C1.85 23.82 0.68 23.47 0.21 22.53C-0.26 21.59 0.09 20.42 1.03 19.95L9 15.74C9.93 15.15 10.75 14.56 11.34 13.86C11.81 13.16 12.04 12.45 12.04 11.75L12.04 4.25L12.04 2.03Z" />
		<path id="Path 2" fill-rule="evenodd" class="shp0" d="M30.67 25.34C31.61 25.81 32.08 26.98 31.49 27.92C31.03 28.86 29.85 29.33 28.91 28.74L19.89 24.05C19.77 24.05 19.66 23.94 19.54 23.94C18.95 23.47 18.13 23.12 17.31 23.12L15.56 21.01C15.44 22.05 16.24 22.98 17.28 23.11C16.36 23.01 15.55 23.24 14.97 23.47L14.97 23.59L5.48 28.74C4.54 29.21 3.37 28.86 2.78 27.92C2.31 26.98 2.67 25.81 3.6 25.23L13.1 20.19C14.38 19.37 16.02 19.13 17.55 19.25L17.67 19.25C19.07 19.37 20.59 19.84 21.77 20.77L30.67 25.34ZM17.31 23.12C17.3 23.12 17.29 23.11 17.28 23.11C17.29 23.11 17.3 23.12 17.31 23.12ZM12.39 22.77C12.86 23.7 14.03 24.05 14.97 23.59" />
	</g>
</svg>